<?xml version="1.0" standalone="no"?>
<!DOCTYPE svg PUBLIC "-//W3C//DTD SVG 20010904//EN"
 "http://www.w3.org/TR/2001/REC-SVG-20010904/DTD/svg10.dtd">
<svg version="1.0" xmlns="http://www.w3.org/2000/svg"
 width="945.000000pt" height="945.000000pt" viewBox="0 0 945.000000 945.000000"
 preserveAspectRatio="xMidYMid meet">
<metadata>
Created by potrace 1.11, written by Peter Selinger 2001-2013
</metadata>
<g transform="translate(0.000000,945.000000) scale(0.100000,-0.100000)"
fill="#000000" stroke="none">
<path d="M5413 9422 c-44 -67 -113 -190 -113 -202 0 -6 -5 -10 -11 -10 -5 0
-8 -4 -4 -9 3 -5 -2 -16 -10 -24 -8 -9 -15 -20 -15 -26 0 -9 -24 -63 -51 -113
-5 -10 -9 -23 -9 -29 0 -6 -6 -25 -14 -42 -30 -65 -95 -298 -110 -392 -2 -16
-5 -30 -6 -30 -1 0 -3 -11 -4 -25 -2 -14 -6 -47 -10 -75 -4 -27 -9 -81 -11
-120 -2 -38 -5 -70 -5 -70 -1 0 -2 -15 -3 -33 -1 -17 2 -32 6 -32 5 0 5 -6 0
-12 -10 -17 -10 -37 -1 -64 3 -12 2 -26 -5 -33 -6 -6 -7 -11 -1 -11 5 0 9 -17
10 -38 1 -56 14 -194 21 -222 4 -13 7 -36 9 -50 1 -14 3 -25 4 -25 1 0 3 -9 5
-20 2 -11 7 -36 11 -55 5 -19 9 -39 9 -45 5 -37 80 -266 108 -330 24 -53 125
-255 148 -294 8 -14 22 -34 32 -45 9 -11 17 -25 17 -31 0 -7 9 -20 20 -30 11
-10 20 -24 20 -31 0 -7 3 -14 8 -16 4 -1 34 -37 67 -78 67 -83 304 -320 320
-320 16 0 86 -66 78 -74 -4 -3 -8 -12 -9 -19 -1 -7 -10 -30 -19 -52 -10 -22
-17 -42 -17 -45 0 -3 -6 -12 -13 -20 -7 -8 -15 -19 -16 -25 -9 -42 -37 -81
-82 -115 -28 -22 -57 -45 -64 -50 -7 -6 -16 -10 -22 -10 -11 0 -21 -24 -21
-51 0 -26 -44 -69 -70 -69 -12 0 -19 4 -16 9 3 5 -2 15 -12 22 -15 13 -16 12
-4 -3 11 -14 10 -19 -10 -31 -61 -37 -100 -57 -114 -57 -8 0 -13 -4 -11 -9 4
-15 -180 -189 -226 -213 -23 -12 -45 -23 -49 -24 -5 -1 -10 -3 -13 -4 -3 -1
-8 -3 -12 -4 -5 -1 -18 -7 -29 -14 -12 -6 -24 -8 -28 -4 -4 3 -11 1 -15 -6 -4
-8 -14 -15 -22 -16 -21 -4 -60 -23 -104 -51 -22 -13 -53 -31 -70 -40 -41 -20
-69 -38 -77 -50 -4 -5 -8 -7 -8 -3 0 4 -13 -5 -29 -20 -15 -15 -38 -34 -51
-42 -33 -22 -84 -64 -88 -72 -2 -5 -10 -8 -18 -8 -8 0 -14 -3 -14 -7 0 -10
-110 -79 -117 -75 -3 2 -9 -1 -13 -8 -4 -6 -13 -12 -21 -14 -8 -1 -32 -10 -53
-19 -48 -21 -179 -57 -222 -61 -17 -2 -40 -9 -52 -15 -12 -6 -22 -10 -22 -8 0
3 -27 -1 -60 -8 -35 -7 -60 -9 -60 -3 0 5 -6 6 -12 1 -7 -4 -47 -8 -88 -9 -76
-2 -150 -10 -205 -21 -39 -9 -34 -7 -77 -26 -21 -10 -40 -17 -42 -17 -3 0 -35
-13 -71 -30 -36 -16 -68 -29 -71 -29 -4 0 -10 -4 -13 -9 -3 -5 -25 -19 -47
-30 -23 -12 -59 -37 -79 -57 -21 -19 -44 -35 -51 -35 -8 0 -14 -4 -14 -8 0 -9
-209 -112 -228 -112 -7 0 -12 -4 -12 -10 0 -5 -3 -9 -7 -8 -12 4 -91 -30 -98
-42 -3 -5 -13 -10 -21 -10 -8 0 -28 -16 -45 -35 -30 -34 -143 -115 -160 -115
-5 0 -9 -4 -9 -9 0 -8 -11 -12 -62 -26 -5 -2 -11 -4 -15 -5 -5 -1 -11 -2 -15
-1 -5 0 -7 -2 -6 -7 0 -4 -2 -15 -6 -24 -4 -9 -2 -26 4 -38 13 -24 11 -27 -53
-95 -37 -39 -69 -87 -73 -112 -3 -17 -57 -93 -91 -128 -16 -16 -47 -52 -68
-79 -22 -27 -51 -61 -65 -76 -83 -88 -192 -199 -216 -221 -51 -46 -165 -114
-197 -117 -4 -1 -20 -8 -35 -16 -15 -7 -61 -24 -102 -37 -41 -12 -79 -25 -85
-28 -5 -3 -13 -6 -17 -7 -5 -1 -9 -2 -10 -3 -2 -2 -13 -4 -24 -6 -12 -3 -34
-10 -50 -16 -16 -7 -35 -11 -42 -10 -8 1 -19 -2 -26 -8 -31 -26 -242 -33 -334
-12 -47 11 -121 23 -154 24 -10 1 -18 4 -18 7 0 4 -54 5 -92 1 -8 -1 -5 -22 6
-40 6 -9 5 -12 -2 -7 -10 6 -11 -7 -3 -112 1 -7 5 -10 11 -7 5 3 10 2 10 -3 0
-6 20 -19 45 -31 52 -24 59 -26 49 -8 -4 6 2 4 13 -6 11 -9 22 -16 24 -15 2 2
3 1 2 -1 -1 -2 3 -13 9 -24 9 -17 8 -19 -6 -14 -9 4 -16 2 -16 -3 0 -6 -1 -13
-2 -17 -5 -11 47 -11 54 1 5 8 8 7 8 -2 0 -7 5 -10 10 -7 6 3 10 1 10 -5 0 -6
5 -8 10 -5 6 3 10 1 10 -5 0 -6 5 -8 10 -5 14 9 12 -8 -2 -24 -9 -9 -9 -12 -1
-7 7 4 14 -2 18 -14 4 -11 10 -18 15 -15 5 3 27 1 49 -4 27 -6 43 -5 52 3 9 8
10 8 5 -2 -6 -9 -1 -11 17 -8 19 3 24 0 22 -12 -2 -10 -4 -21 -4 -25 -1 -5 -6
-5 -11 -2 -6 3 -10 -1 -10 -10 0 -9 -5 -13 -10 -10 -6 4 -10 -5 -8 -24 2 -33
5 -36 27 -22 8 5 24 6 37 1 15 -6 24 -5 28 3 3 8 5 8 5 -2 1 -10 4 -11 15 -2
10 8 16 9 21 1 3 -5 12 -10 18 -10 7 0 6 4 -3 10 -9 6 -10 10 -3 10 6 0 15 -5
18 -10 4 -7 13 -7 26 0 13 8 19 7 19 0 0 -7 6 -8 19 0 26 13 34 13 25 -3 -6
-9 -4 -9 7 -1 8 6 22 10 32 9 9 -2 17 0 17 4 0 5 11 6 25 3 14 -2 23 -8 20
-12 -3 -4 3 -7 13 -6 11 1 16 -5 15 -19 -1 -11 0 -14 3 -7 3 6 10 10 15 6 5
-3 9 -1 9 4 0 5 7 9 15 9 8 0 15 -5 15 -10 0 -5 7 -4 15 3 8 6 19 9 25 5 5 -3
10 0 10 7 0 10 3 9 9 -2 6 -8 8 -17 5 -21 -2 -4 3 -10 12 -13 27 -10 54 -7 60
9 4 8 10 13 14 10 5 -3 15 4 23 15 7 11 17 17 20 13 4 -3 7 -1 7 6 0 7 5 9 10
6 5 -3 10 -1 10 5 0 6 4 9 9 6 5 -4 11 -1 13 6 3 9 9 8 21 -4 10 -10 13 -19 7
-23 -6 -4 -5 -11 2 -19 16 -16 38 -16 38 0 0 8 6 11 15 8 9 -4 22 6 36 28 11
18 18 24 15 13 -6 -19 -5 -19 8 -3 7 10 19 18 26 18 7 0 23 11 36 25 13 14 20
25 16 25 -4 0 6 7 22 15 15 8 29 15 30 15 6 0 -2 -59 -11 -80 -6 -14 -9 -28
-6 -32 7 -12 33 -9 33 4 0 6 3 9 6 5 3 -3 19 7 34 23 15 16 30 26 33 24 3 -3
13 6 23 18 16 20 25 23 51 17 18 -3 30 -2 27 2 -3 5 -1 9 5 9 6 0 7 7 4 17 -4
10 -2 14 4 10 6 -4 19 5 29 18 10 14 24 25 31 25 6 0 15 5 19 12 5 7 2 9 -7 4
-8 -4 -6 -1 3 7 10 8 18 20 18 27 0 7 7 10 14 7 11 -4 13 -1 9 10 -4 11 -2 14
5 9 7 -4 14 3 18 18 8 32 35 42 51 20 11 -16 46 -13 41 3 -4 15 15 58 32 73 9
8 20 24 24 35 4 12 10 15 14 9 8 -13 44 -15 36 -2 -3 4 0 8 5 8 6 0 11 7 11
16 0 8 5 12 10 9 6 -3 10 5 10 18 0 25 31 48 38 28 2 -6 7 -9 10 -7 4 2 8 -7
8 -20 1 -13 -2 -24 -8 -24 -5 0 -6 -6 -1 -13 11 -17 13 -38 3 -32 -8 5 -21
-45 -20 -82 0 -12 -5 -25 -10 -28 -6 -3 -10 -15 -10 -26 0 -10 -5 -19 -11 -19
-5 0 -8 -4 -5 -8 3 -5 -2 -21 -10 -36 -7 -16 -14 -39 -14 -52 0 -12 -5 -26
-12 -30 -7 -5 -8 -2 -3 7 5 8 4 11 -1 6 -5 -5 -9 -12 -10 -15 0 -4 -6 -20 -12
-35 -7 -16 -12 -33 -12 -38 0 -6 -4 -7 -10 -4 -5 3 -12 -6 -16 -20 -3 -14 -10
-25 -16 -25 -5 0 -7 -4 -4 -9 3 -5 -1 -12 -10 -15 -8 -3 -12 -11 -9 -16 4 -6
1 -9 -7 -8 -7 2 -13 -4 -13 -12 0 -8 -6 -19 -13 -23 -7 -5 -9 -14 -6 -20 4 -7
4 -9 0 -5 -5 4 -17 -2 -29 -12 -11 -11 -23 -17 -27 -15 -5 3 -11 -2 -14 -11
-3 -8 -10 -13 -15 -10 -5 4 -12 0 -14 -6 -4 -10 -6 -10 -6 -1 -1 9 -6 9 -18
-2 -10 -8 -22 -15 -26 -15 -17 2 -46 -48 -52 -91 -10 -63 -12 -119 -4 -119 3
0 5 -11 4 -25 -2 -14 1 -27 5 -30 5 -3 7 -12 4 -19 -3 -8 0 -17 6 -21 8 -5 8
-11 -1 -21 -9 -11 -8 -14 2 -14 9 0 10 -3 3 -8 -11 -7 -12 -10 -17 -77 -1 -22
-6 -46 -11 -54 -7 -11 -6 -12 5 -6 12 8 12 6 0 -8 -7 -9 -10 -17 -5 -17 4 0 3
-5 -4 -12 -16 -16 -15 -31 0 -22 10 5 10 4 1 -6 -6 -7 -9 -19 -6 -26 3 -8 -1
-14 -8 -14 -11 0 -11 -3 1 -10 12 -7 12 -10 1 -10 -7 0 -11 -6 -7 -15 3 -8 0
-15 -6 -15 -6 0 -8 -3 -5 -6 3 -4 1 -16 -6 -28 -12 -20 -13 -27 -16 -54 -1 -8
-6 -10 -13 -6 -10 6 -10 4 0 -8 8 -10 9 -19 3 -22 -5 -4 -10 -14 -10 -24 -2
-45 -6 -60 -13 -56 -4 3 -8 -2 -8 -10 0 -9 -5 -16 -11 -16 -8 0 -8 -5 1 -15
10 -12 9 -16 -4 -21 -14 -5 -14 -9 -4 -22 8 -9 8 -13 2 -9 -8 4 -16 -9 -23
-39 -6 -24 -18 -47 -26 -50 -8 -4 -12 -10 -9 -15 3 -5 0 -9 -6 -9 -7 0 -9 -7
-6 -16 3 -8 2 -12 -4 -9 -5 3 -12 -10 -16 -30 -3 -19 -10 -33 -14 -30 -5 3 -6
-5 -2 -17 3 -11 1 -19 -4 -16 -5 3 -15 0 -22 -8 -7 -8 -10 -14 -6 -14 4 0 -1
-9 -11 -20 -14 -15 -15 -20 -4 -20 8 0 10 -3 4 -8 -12 -8 -13 -42 -2 -59 4 -6
1 -14 -5 -16 -9 -4 -9 -6 -1 -6 6 -1 9 -10 5 -23 -4 -16 -2 -19 8 -13 9 6 11
4 5 -5 -4 -7 -7 -33 -6 -57 1 -31 -3 -43 -13 -43 -8 0 -16 -4 -18 -8 -1 -4
-49 -37 -106 -72 -258 -163 -264 -167 -364 -274 -179 -191 -357 -365 -433
-423 -110 -83 -193 -138 -240 -160 -22 -10 -45 -22 -52 -28 -7 -5 -19 -16 -28
-23 -12 -10 -15 -39 -15 -147 l0 -135 3924 0 c3747 0 3925 1 3930 18 3 9 18
31 33 48 16 17 29 38 31 45 2 8 11 22 20 33 14 15 17 41 17 157 0 76 3 139 7
139 4 0 5 7 2 15 -4 8 -7 66 -8 128 -1 110 -2 113 -36 164 -19 29 -38 53 -42
53 -5 0 -8 7 -8 15 0 8 -4 15 -9 15 -5 0 -12 8 -15 18 -4 9 -22 35 -41 57 -84
95 -94 159 -61 385 2 14 5 25 6 25 1 0 3 11 4 25 2 14 6 41 11 60 14 67 10
108 -15 176 -6 16 -10 30 -8 31 2 1 -6 8 -16 16 -11 8 -16 19 -12 25 4 7 2 12
-4 12 -5 0 -32 23 -58 51 -134 145 -363 370 -379 374 -10 2 -30 8 -45 14 -16
6 -28 8 -28 5 0 -2 -13 2 -30 11 -16 9 -30 13 -30 10 0 -10 -107 37 -285 125
-309 151 -419 203 -655 308 -19 9 -41 17 -49 18 -8 2 -17 7 -20 13 -7 10 -200
8 -261 -3 -158 -30 -176 -30 -193 -5 -8 10 -17 16 -20 12 -4 -3 -7 1 -7 10 0
9 -5 17 -11 17 -5 0 -7 5 -4 10 3 6 1 10 -5 10 -6 0 -9 4 -5 9 3 5 1 12 -5 16
-5 3 -10 11 -10 16 0 6 5 7 11 3 6 -3 4 4 -4 17 -9 13 -16 27 -17 32 0 4 0 8
-1 10 -1 1 -2 27 -4 57 -1 31 -8 66 -15 79 -9 18 -9 22 0 16 9 -6 9 -2 1 14
-7 11 -8 21 -3 21 10 0 9 311 -1 328 -5 7 -4 12 3 12 8 0 8 6 0 20 -6 12 -7
20 -1 20 5 0 8 11 6 25 -1 14 2 25 7 25 4 0 6 11 4 25 -3 13 0 27 5 31 6 3 8
12 5 20 -3 8 -1 14 4 14 5 0 6 7 3 17 -4 11 -3 14 5 9 12 -7 16 5 13 33 -2 7
2 10 8 6 10 -5 16 15 12 38 -1 5 3 6 9 2 5 -3 10 0 10 8 0 8 7 17 15 21 8 3
12 12 9 21 -3 8 -1 15 5 15 6 0 11 9 11 20 0 11 7 23 15 26 8 4 12 10 10 15
-3 5 3 16 15 26 20 17 29 50 10 38 -16 -10 -11 7 5 19 9 6 17 21 18 34 0 12 5
22 10 22 5 0 6 7 3 16 -4 10 -2 13 6 8 8 -5 9 -2 5 9 -3 10 -2 17 3 17 6 0 9
6 7 13 -1 6 4 11 12 9 8 -2 11 3 8 12 -4 9 0 22 8 30 8 7 11 16 8 20 -4 3 -1
6 5 6 6 0 9 11 6 24 -3 17 2 28 13 35 11 6 13 11 5 11 -8 0 -10 5 -6 12 7 11
13 41 16 76 1 6 5 12 9 12 4 0 5 9 2 20 -4 16 -2 19 12 13 14 -5 16 -3 10 8
-5 8 1 5 13 -5 27 -24 36 -16 37 31 0 26 5 37 18 39 9 1 17 -3 17 -9 0 -7 3
-8 10 -1 10 10 21 44 22 72 1 7 8 11 17 9 9 -2 15 -9 14 -15 -2 -7 4 -12 13
-12 18 0 46 25 37 34 -4 3 -1 6 5 6 10 0 28 38 24 53 -1 4 3 7 8 7 6 0 10 7
10 16 0 9 5 12 12 8 7 -5 9 -2 5 8 -4 11 -1 14 12 11 19 -5 36 21 25 38 -3 5
2 9 10 9 20 0 35 30 32 63 -2 15 1 27 6 27 5 0 8 6 7 13 -4 30 2 47 16 47 9 0
18 7 21 15 4 8 10 13 14 10 15 -9 41 37 29 51 -8 9 -5 11 13 7 17 -3 19 -2 9
5 -9 7 -10 12 -2 16 6 4 9 12 6 17 -4 5 1 9 9 9 9 0 16 5 16 12 0 6 10 3 23
-8 28 -26 53 -25 49 1 -4 29 -7 39 -15 53 -5 7 -4 12 2 12 6 0 9 10 7 23 -2
12 -10 21 -17 19 -11 -3 -11 -1 -2 9 8 8 9 18 2 31 -7 14 -6 18 6 18 8 0 15 6
15 13 0 8 3 8 8 2 4 -6 14 -10 22 -10 11 0 14 10 12 35 -1 19 -4 50 -5 69 -2
20 2 35 10 38 7 3 10 9 7 14 -3 5 2 6 10 3 9 -3 13 -10 10 -15 -3 -5 0 -9 7
-9 6 0 18 -8 25 -17 7 -10 16 -15 19 -11 13 13 8 57 -9 73 -9 9 -14 21 -10 26
3 5 0 8 -8 7 -7 -2 -12 5 -12 15 1 9 -2 17 -7 17 -5 0 -8 11 -7 25 1 14 5 25
8 25 4 0 9 65 11 143 0 9 4 15 9 12 4 -3 6 10 3 27 -3 18 -9 35 -14 36 -5 2
-9 8 -9 13 0 6 5 7 11 3 8 -5 9 -2 1 12 -8 14 -6 21 6 30 18 13 19 69 0 92 -7
9 -8 13 -2 9 6 -3 11 1 11 9 0 9 -6 13 -16 9 -10 -3 -9 1 4 10 11 9 19 18 18
20 -9 15 0 26 16 20 26 -8 34 28 11 54 -9 12 -20 18 -24 14 -3 -3 -6 1 -6 11
0 9 -4 15 -9 12 -10 -7 -9 13 2 30 8 13 6 66 -2 58 -3 -2 -10 6 -17 18 -10 18
-9 28 2 50 9 17 10 28 4 28 -5 0 -10 5 -10 11 0 6 -10 21 -22 34 -20 20 -34
70 -17 60 10 -7 32 23 24 34 -3 6 0 8 8 5 8 -3 17 2 21 11 3 9 11 13 17 9 8
-4 9 -3 5 4 -4 7 -3 12 2 12 6 0 8 8 5 19 -4 15 3 20 34 27 21 4 43 8 48 8 6
1 16 7 23 14 8 7 17 10 22 7 5 -3 11 -1 15 5 4 6 11 8 16 5 5 -4 9 -1 9 4 0 6
5 11 11 11 6 0 33 11 60 25 27 13 49 22 49 19 0 -3 12 4 26 15 15 12 30 21 35
21 7 0 68 37 94 58 6 4 34 22 63 41 28 18 52 37 52 43 0 5 4 7 9 4 5 -4 11 -3
13 1 1 5 37 37 78 73 41 36 88 78 104 95 77 81 105 114 140 160 21 28 41 52
45 55 4 3 17 22 30 43 13 21 30 44 38 52 8 8 11 15 6 15 -4 0 -3 4 2 8 12 8
30 36 47 72 7 14 15 27 18 30 6 6 94 182 95 190 0 3 9 23 20 45 10 22 20 47
21 55 2 8 7 23 13 35 8 16 61 182 66 205 0 3 5 23 9 45 4 22 10 51 13 65 8 41
11 55 13 55 1 0 3 14 5 31 2 16 7 48 11 70 8 42 12 502 5 597 -3 32 -8 60 -13
63 -5 3 -6 9 -4 13 6 8 -26 180 -45 246 -13 47 -16 58 -17 65 0 3 -9 28 -20
55 -11 28 -21 55 -22 60 -1 6 -7 21 -13 35 -5 14 -11 30 -12 35 -5 19 -69 160
-84 184 -8 13 -16 30 -17 37 -1 8 -12 25 -23 40 -12 15 -21 33 -21 40 0 8 -4
14 -8 14 -5 0 -14 16 -22 35 -8 19 -17 35 -20 35 -4 0 -12 11 -18 25 l-12 25
-1449 0 -1450 0 -18 -28z m1874 -3834 c-2 -21 -19 -19 -22 3 -2 9 3 16 10 16
8 0 13 -9 12 -19z m-2493 -1879 c4 6 18 11 32 11 14 0 22 -4 19 -10 -3 -5 -2
-10 4 -10 6 0 8 -7 5 -15 -4 -8 -10 -12 -16 -9 -5 3 -4 -3 4 -15 14 -23 48
-29 48 -8 0 8 4 7 10 -3 8 -13 11 -13 19 -1 7 11 11 10 20 -5 6 -11 11 -13 11
-6 0 18 20 15 20 -4 0 -9 5 -13 13 -9 6 4 4 0 -6 -8 -16 -14 -16 -15 8 -19 14
-3 25 -1 25 4 0 6 7 7 16 4 10 -4 13 -2 8 6 -5 8 -2 9 9 5 11 -4 17 -1 17 7 0
7 7 13 15 13 8 0 15 -4 15 -8 0 -4 10 -9 23 -11 12 -2 21 -6 20 -10 -1 -4 4
-20 12 -35 8 -14 12 -30 9 -35 -3 -4 -1 -8 3 -8 5 0 10 -12 11 -27 1 -16 7
-30 12 -31 6 -2 7 -8 4 -13 -3 -6 1 -21 10 -34 9 -14 12 -26 6 -30 -5 -3 -4
-20 4 -43 6 -20 11 -48 10 -62 -1 -14 3 -30 8 -37 5 -7 7 -17 3 -23 -3 -5 0
-10 7 -11 7 0 9 -2 3 -5 -16 -6 -10 -135 6 -145 11 -7 11 -9 1 -9 -14 0 -12
-31 3 -43 6 -6 5 -10 -3 -14 -10 -4 -10 -8 0 -21 10 -12 10 -14 1 -8 -7 4 -13
2 -13 -3 0 -6 6 -11 13 -11 9 0 9 -2 0 -8 -8 -5 -9 -13 -3 -22 5 -8 5 -21 -1
-32 -7 -13 -6 -18 3 -18 10 0 10 -2 -1 -9 -9 -6 -10 -10 -2 -16 9 -5 9 -11 -1
-22 -15 -19 -15 -23 4 -34 9 -6 9 -9 1 -9 -6 0 -11 -13 -11 -30 1 -18 5 -27
12 -23 7 4 7 2 -1 -8 -16 -20 -17 -31 -1 -40 10 -7 10 -9 0 -9 -7 0 -10 -4 -7
-10 3 -5 2 -10 -3 -10 -4 0 -7 -23 -6 -51 1 -33 -3 -52 -11 -55 -14 -6 -8 -44
6 -44 5 0 9 -7 9 -15 0 -8 7 -15 16 -15 8 0 12 -4 9 -10 -3 -5 0 -10 8 -10 7
0 21 -16 30 -35 9 -19 23 -35 32 -35 9 0 12 -6 8 -17 -4 -11 -3 -14 5 -9 8 5
12 0 12 -13 0 -12 5 -21 10 -21 6 0 10 -7 10 -15 0 -8 5 -15 10 -15 6 0 10 -6
10 -14 0 -8 8 -17 18 -21 12 -5 -9 -16 -73 -39 -49 -18 -117 -46 -150 -61 -33
-16 -69 -30 -80 -31 -11 -2 -47 -10 -80 -19 -33 -8 -69 -17 -80 -20 -56 -13
-142 -37 -160 -45 -11 -5 -45 -16 -75 -26 -55 -16 -180 -72 -190 -84 -3 -3
-25 -18 -50 -32 -61 -35 -128 -52 -245 -63 -77 -7 -160 -15 -200 -20 -22 -3
-69 -7 -105 -10 -36 -3 -72 -7 -80 -8 -61 -13 -87 -21 -97 -29 -7 -6 -13 -8
-13 -4 0 4 -17 -2 -38 -13 -38 -19 -72 -15 -58 8 4 6 2 11 -4 11 -6 0 -9 4 -5
9 3 5 1 12 -5 16 -7 4 -6 13 1 27 8 15 8 19 0 14 -12 -8 -15 6 -4 18 11 11 9
50 -2 58 -7 5 -7 8 0 8 9 0 10 23 2 90 -2 14 2 31 7 39 9 11 8 13 -2 7 -11 -6
-11 -2 1 20 8 16 12 35 10 42 -3 6 1 12 8 12 7 0 9 3 6 6 -3 4 -1 16 5 28 7
11 13 27 14 33 1 7 9 20 18 29 9 8 13 21 9 27 -3 7 -3 9 1 6 9 -8 54 33 49 44
-2 4 3 7 11 7 14 0 20 12 17 33 0 4 2 6 6 6 22 -4 41 3 61 21 12 12 22 17 22
13 0 -4 5 0 11 10 6 9 14 15 19 12 4 -3 11 2 14 11 3 8 10 13 15 10 5 -3 11 1
15 9 3 8 12 15 21 15 8 0 15 5 15 12 0 6 3 9 6 6 3 -3 22 9 42 28 20 19 41 34
46 34 14 0 65 58 58 66 -4 4 -2 4 4 1 10 -6 17 1 54 48 13 17 13 18 0 10 -8
-4 -6 2 5 13 36 37 44 50 38 56 -4 3 -1 6 6 6 7 0 9 5 6 10 -3 6 -1 10 4 10 6
0 11 9 11 20 0 11 4 20 9 20 5 0 12 11 15 25 4 16 11 23 18 19 7 -5 9 -2 5 9
-3 9 1 23 9 32 9 8 12 15 8 15 -3 0 -1 7 6 15 6 8 9 18 6 24 -3 5 1 12 10 15
10 4 14 12 10 22 -3 9 -3 21 1 27 8 12 9 17 11 50 1 11 7 15 14 11 8 -5 9 -2
5 10 -5 12 0 19 16 26 12 5 16 9 8 9 -11 1 -11 4 -1 16 7 8 9 15 5 15 -5 0 -1
8 7 18 9 9 14 25 13 35 -2 9 1 17 6 17 4 0 6 7 3 15 -4 8 -1 15 4 15 6 0 9 9
7 20 -2 11 0 20 4 20 4 0 8 7 9 15 1 8 3 22 4 30 1 8 6 15 11 15 5 0 7 7 3 15
-3 8 -2 15 3 15 4 0 8 6 9 13 3 42 7 57 15 57 4 0 7 6 5 13 -4 19 33 68 46 60
6 -3 8 -3 4 2 -10 11 11 47 23 40 5 -4 9 3 9 14 0 12 5 21 10 21 6 0 10 8 10
17 0 9 3 13 6 10 4 -4 15 3 25 15 11 11 19 18 19 14 0 -4 7 0 16 8 8 9 20 14
25 11 5 -4 9 -2 9 4 0 6 10 15 21 22 17 9 20 8 15 -3 -4 -7 1 -3 11 8 10 12
21 17 24 12 4 -7 9 -6 13 1z m934 -142 c6 3 9 10 5 16 -4 7 2 5 12 -3 14 -11
17 -12 11 -1 -6 9 -4 12 5 9 8 -3 19 -13 24 -24 6 -10 16 -20 24 -22 7 -1 10
2 6 8 -3 5 1 13 9 16 9 3 14 9 11 13 -2 4 5 7 17 6 29 -2 45 -32 51 -97 2 -15
7 -31 12 -35 4 -4 5 -1 0 7 -6 11 -5 12 4 4 12 -11 22 -42 25 -82 2 -13 9 -28
17 -33 12 -7 12 -9 -1 -9 -9 0 -11 -3 -5 -8 11 -8 14 -19 17 -57 1 -14 7 -25
12 -25 5 0 6 -3 3 -7 -4 -3 -2 -12 4 -20 6 -7 8 -13 5 -13 -4 0 -2 -9 4 -19 7
-14 7 -22 -1 -26 -7 -5 -4 -14 7 -26 13 -15 14 -19 3 -20 -11 0 -11 -2 -1 -6
10 -4 10 -8 0 -21 -11 -13 -10 -15 4 -9 15 5 16 4 5 -14 -10 -16 -9 -21 2 -28
7 -5 10 -14 6 -21 -10 -16 -13 -70 -3 -64 8 5 12 -9 8 -40 -1 -12 2 -16 12
-11 10 6 10 5 1 -5 -8 -9 -9 -19 -2 -32 7 -13 6 -18 -3 -18 -9 0 -9 -3 2 -10
8 -5 11 -10 7 -10 -4 0 -3 -9 3 -20 8 -15 8 -20 -2 -20 -9 0 -9 -3 2 -10 8 -5
10 -10 5 -10 -7 0 -9 -15 -7 -35 2 -19 7 -35 11 -35 4 0 7 -23 7 -51 -1 -38 5
-61 22 -85 12 -18 22 -38 22 -44 0 -6 5 -8 10 -5 9 6 15 -22 11 -54 -2 -7 2
-10 8 -6 6 3 11 2 11 -3 0 -7 -71 -30 -119 -38 -36 -6 -123 -28 -186 -46 -38
-11 -75 -21 -82 -22 -7 -1 -16 -5 -19 -9 -14 -14 -54 -7 -54 9 0 8 -7 22 -16
31 -8 9 -13 21 -10 28 3 8 -2 16 -9 19 -8 3 -12 12 -9 21 4 9 1 15 -8 15 -10
0 -14 18 -16 67 -2 38 -8 71 -15 75 -8 5 -9 8 -1 8 15 0 14 162 -1 172 -6 5
-5 8 3 8 7 0 11 4 7 9 -10 17 7 121 19 114 7 -5 7 -2 -1 8 -6 8 -10 29 -9 47
1 17 -2 32 -7 32 -4 0 -6 4 -2 10 9 14 12 220 3 220 -4 0 -5 7 -2 15 4 8 10
12 15 9 5 -3 6 3 2 12 -4 10 -2 15 3 11 6 -3 10 10 11 29 0 19 -4 34 -11 34
-6 0 -4 5 4 10 13 9 13 10 0 10 -10 0 -11 3 -4 8 13 8 23 112 11 112 -4 0 -4
7 1 16 5 9 7 25 5 35 -3 10 2 26 11 34 9 9 13 22 9 28 -3 7 5 2 18 -9 13 -12
30 -19 37 -17z m-2271 -762 c-1 -30 -6 -55 -12 -55 -5 0 -3 -5 5 -10 11 -7 11
-10 2 -10 -10 0 -10 -5 -2 -20 8 -15 8 -20 -1 -20 -6 0 -9 -9 -6 -20 3 -11 2
-20 -2 -20 -10 0 -8 -41 2 -58 5 -7 2 -14 -7 -18 -9 -3 -16 -16 -16 -29 0 -13
-7 -26 -16 -29 -8 -3 -13 -10 -10 -15 3 -5 -4 -20 -15 -35 -11 -14 -17 -31
-13 -38 5 -7 2 -9 -8 -6 -8 4 -20 -2 -26 -13 -7 -10 -18 -19 -26 -19 -8 0 -17
-7 -20 -16 -3 -9 -11 -12 -18 -8 -7 5 -9 2 -5 -9 4 -11 1 -15 -14 -12 -25 5
-26 -35 -1 -72 13 -21 14 -25 2 -18 -12 7 -12 5 1 -11 9 -10 14 -25 11 -33 -3
-10 0 -12 13 -7 15 5 16 4 6 -8 -7 -8 -8 -16 -2 -18 5 -1 11 -12 13 -23 1 -11
7 -23 11 -26 4 -3 9 -16 10 -27 1 -12 6 -22 12 -22 5 0 3 -5 -5 -10 -12 -8
-12 -10 -1 -10 11 0 11 -3 0 -17 -8 -9 -9 -14 -3 -10 7 4 14 -3 16 -18 3 -14
0 -25 -6 -26 -6 0 -7 -2 -1 -5 6 -2 9 -52 8 -124 0 -66 3 -120 7 -120 5 0 7
-10 4 -22 -11 -54 -13 -89 -5 -84 5 4 8 -1 7 -10 -2 -16 -68 -53 -93 -54 -7 0
-13 -4 -13 -8 0 -5 -6 -9 -12 -10 -7 0 -44 -11 -83 -25 -38 -13 -104 -34 -145
-46 -41 -12 -82 -25 -90 -28 -17 -6 -46 -13 -72 -15 -10 -1 -18 -5 -18 -8 0
-4 -6 -7 -12 -8 -15 -1 -53 -9 -78 -17 -10 -3 -31 -7 -46 -9 -16 -2 -45 -7
-64 -10 -19 -3 -60 -8 -90 -11 -180 -15 -195 -16 -180 -6 13 10 13 11 0 11
-12 0 -12 2 -1 9 9 6 10 10 2 16 -9 5 -9 10 0 21 9 11 8 14 -2 14 -11 0 -11 2
1 10 8 5 11 10 5 10 -5 0 -3 5 5 10 9 6 10 10 3 10 -11 0 -2 41 19 83 5 10 6
22 3 28 -4 5 -1 8 6 7 6 -2 14 3 16 10 3 6 -1 12 -7 12 -7 0 -5 6 4 16 9 8 13
20 10 25 -3 6 2 17 12 24 11 8 15 15 11 15 -4 0 -2 10 5 23 6 12 13 28 14 34
1 7 10 20 19 29 9 9 14 23 11 30 -3 9 1 14 12 14 13 0 14 2 3 9 -9 6 -10 11
-2 15 6 4 9 12 6 17 -4 5 -1 9 5 9 6 0 8 5 5 10 -3 6 -2 10 4 10 5 0 8 9 6 20
-2 11 0 18 6 15 5 -4 9 2 9 12 0 11 7 28 15 39 8 10 15 24 15 30 0 6 8 29 17
50 9 22 17 41 18 44 4 20 41 106 48 111 5 3 8 9 7 13 -5 19 14 68 30 78 10 6
16 18 13 25 -3 7 0 13 6 13 6 0 10 3 9 8 -4 18 23 63 34 56 6 -4 8 -3 5 3 -8
12 57 85 67 76 3 -4 6 0 6 7 0 7 3 10 7 7 3 -4 21 4 39 18 18 14 40 25 48 25
9 0 16 5 16 11 0 5 5 7 10 4 6 -3 13 0 16 9 3 9 12 12 21 9 11 -4 14 -2 9 5
-6 11 5 15 30 11 4 0 10 3 13 8 11 15 68 43 75 36 3 -3 6 -1 6 6 0 7 4 10 9 6
6 -3 14 3 20 12 8 14 10 15 11 3 0 -10 3 -11 8 -4 4 7 16 14 27 16 11 2 19 10
18 16 -2 7 6 12 17 12 11 0 23 6 26 14 3 8 11 13 19 10 7 -3 15 2 18 10 4 9
13 16 22 16 8 0 15 5 15 10 0 6 7 10 16 10 10 0 14 6 11 14 -4 11 -1 13 10 9
10 -4 14 -2 10 4 -4 6 4 14 18 17 14 4 23 11 20 16 -3 5 4 7 15 5 11 -2 20 0
20 6 0 5 2 9 4 9 2 0 3 -25 3 -55z m-1297 -1489 c0 -3 -4 -8 -10 -11 -5 -3
-10 -1 -10 4 0 6 5 11 10 11 6 0 10 -2 10 -4z"/>
</g>
</svg>
